<svg width="50" height="50" viewBox="0 0 50 50" fill="none" xmlns="http://www.w3.org/2000/svg">
<path d="M42.8736 0H7.12646C3.19697 0 0 3.19697 0 7.12646V42.8735C0 46.8031 3.19697 50 7.12646 50H42.8735C46.8031 50 50 46.8031 50 42.8736V7.12646C50 3.19697 46.8031 0 42.8736 0ZM45.9605 42.8735C45.9605 44.5757 44.5757 45.9605 42.8736 45.9605H7.12646C5.42432 45.9605 4.03945 44.5757 4.03945 42.8736V7.12646C4.03945 5.42432 5.42432 4.03945 7.12646 4.03945H42.8735C44.5757 4.03945 45.9605 5.42432 45.9605 7.12646V42.8735V42.8735Z" fill="#FCF7F7"/>
<path d="M34.0883 31.232L18.7681 15.9118C17.9794 15.1231 16.7005 15.1231 15.9117 15.9118C15.1229 16.7006 15.1229 17.9794 15.9117 18.7682L31.2319 34.0884C31.6263 34.4828 32.1433 34.68 32.6601 34.68C33.177 34.68 33.694 34.4828 34.0884 34.0884C34.8769 33.2997 34.8769 32.0208 34.0883 31.232Z" fill="#FCF7F7"/>
<path d="M34.0884 15.9118C33.2996 15.1231 32.0208 15.1231 31.232 15.9118L15.9117 31.232C15.1229 32.0208 15.1229 33.2996 15.9117 34.0884C16.306 34.4828 16.823 34.68 17.3399 34.68C17.8568 34.68 18.3737 34.4828 18.7681 34.0884L34.0884 18.7682C34.877 17.9795 34.877 16.7007 34.0884 15.9118Z" fill="#FCF7F7"/>
</svg>
