<svg width="397" height="272" viewBox="0 0 397 272" fill="none" xmlns="http://www.w3.org/2000/svg">
<path d="M375.093 262.34H26.8003C22.1297 262.34 18.3488 258.383 18.3488 253.494V8.84553C18.3488 3.95721 22.1297 0 26.8003 0H375.093C379.763 0 383.544 3.95721 383.544 8.84553V253.378C383.655 258.383 379.763 262.34 375.093 262.34Z" fill="#00D5E4"/>
<path d="M362.749 253.494H39.144C34.4734 253.494 30.6924 249.537 30.6924 244.649V17.8074C30.6924 12.9191 34.4734 8.96191 39.144 8.96191H362.749C367.42 8.96191 371.201 12.9191 371.201 17.8074V244.649C371.312 249.421 367.42 253.494 362.749 253.494Z" fill="#065090"/>
<path d="M128.552 33.6363H83.8482V38.8738H128.552V33.6363Z" fill="#FCFDFD"/>
<path d="M112.317 45.2751H83.8482V50.5126H112.317V45.2751Z" fill="#FCFDFD"/>
<path d="M242.982 45.2751H128.33V50.5126H242.982V45.2751Z" fill="#FCFDFD"/>
<path d="M314.153 45.2751H254.102V50.5126H314.153V45.2751Z" fill="#FF6452"/>
<path d="M167.363 56.914H94.9686V62.1515H167.363V56.914Z" fill="#00D050"/>
<path d="M297.472 56.914H189.604V62.1515H297.472V56.914Z" fill="#FCFDFD"/>
<path d="M185.711 68.5529H83.8482V73.7904H185.711V68.5529Z" fill="#FF6452"/>
<path d="M267.447 68.5529H195.053V73.7904H267.447V68.5529Z" fill="#00D5E4"/>
<path d="M167.363 80.1917H94.9686V85.4292H167.363V80.1917Z" fill="#FCFDFD"/>
<path d="M189.604 91.8306H83.8482V97.068H189.604V91.8306Z" fill="#FCFDFD"/>
<path d="M156.242 103.469H83.8482V108.707H156.242V103.469Z" fill="#FCFDFD"/>
<path d="M226.857 115.108H106.089V120.346H226.857V115.108Z" fill="#FF6452"/>
<path d="M278.567 115.108H239.534V120.346H278.567V115.108Z" fill="#FCFDFD"/>
<path d="M334.169 115.108H295.137V120.346H334.169V115.108Z" fill="#FCFDFD"/>
<path d="M166.473 126.747H117.21V131.985H166.473V126.747Z" fill="#FCFDFD"/>
<path d="M182.931 138.386H117.21V143.623H182.931V138.386Z" fill="#FF6452"/>
<path d="M278.567 138.386H206.173V143.623H278.567V138.386Z" fill="#FCFDFD"/>
<path d="M325.273 138.386H295.137V143.623H325.273V138.386Z" fill="#FF6452"/>
<path d="M128.33 150.025H83.8482V155.262H128.33V150.025Z" fill="#FCFDFD"/>
<path d="M156.242 161.664H83.8482V166.901H156.242V161.664Z" fill="#FCFDFD"/>
<path d="M248.542 173.303H117.21V178.54H248.542V173.303Z" fill="#FCFDFD"/>
<path d="M343.066 173.303H261.775V178.54H343.066V173.303Z" fill="#00D5E4"/>
<path d="M161.803 184.941H117.21V190.179H161.803V184.941Z" fill="#FCFDFD"/>
<path d="M217.405 184.941H172.812V190.179H217.405V184.941Z" fill="#00D050"/>
<path d="M273.007 184.941H228.414V190.179H273.007V184.941Z" fill="#FCFDFD"/>
<path d="M156.242 196.58H83.8482V201.818H156.242V196.58Z" fill="#FCFDFD"/>
<path d="M178.483 208.219H106.089V213.457H178.483V208.219Z" fill="#00D050"/>
<path d="M264.667 208.219H192.273V213.457H264.667V208.219Z" fill="#00D050"/>
<path d="M231.305 231.497H190.716V236.734H231.305V231.497Z" fill="#FCFDFD"/>
<path d="M213.513 219.858H106.089V225.095H213.513V219.858Z" fill="#FCFDFD"/>
<path d="M55.9358 33.6363H50.9316V38.8738H55.9358V33.6363Z" fill="#5E94C1"/>
<path d="M55.9358 45.2751H50.9316V50.5126H55.9358V45.2751Z" fill="#5E94C1"/>
<path d="M55.9358 56.914H50.9316V62.1515H55.9358V56.914Z" fill="#5E94C1"/>
<path d="M55.9358 68.5529H50.9316V73.7904H55.9358V68.5529Z" fill="#5E94C1"/>
<path d="M55.9358 80.1917H50.9316V85.4292H55.9358V80.1917Z" fill="#5E94C1"/>
<path d="M55.9358 91.8306H50.9316V97.068H55.9358V91.8306Z" fill="#5E94C1"/>
<path d="M55.9358 103.469H50.9316V108.707H55.9358V103.469Z" fill="#5E94C1"/>
<path d="M55.9358 115.108H50.9316V120.346H55.9358V115.108Z" fill="#5E94C1"/>
<path d="M55.9358 126.747H50.9316V131.985H55.9358V126.747Z" fill="#5E94C1"/>
<path d="M55.9358 138.386H50.9316V143.623H55.9358V138.386Z" fill="#5E94C1"/>
<path d="M55.9358 150.025H50.9316V155.262H55.9358V150.025Z" fill="#5E94C1"/>
<path d="M55.9358 161.664H50.9316V166.901H55.9358V161.664Z" fill="#5E94C1"/>
<path d="M55.9358 173.303H50.9316V178.54H55.9358V173.303Z" fill="#5E94C1"/>
<path d="M55.9358 184.941H50.9316V190.179H55.9358V184.941Z" fill="#5E94C1"/>
<path d="M55.9358 196.58H50.9316V201.818H55.9358V196.58Z" fill="#5E94C1"/>
<path d="M55.9358 208.219H50.9316V213.457H55.9358V208.219Z" fill="#5E94C1"/>
<path d="M55.9358 219.858H50.9316V225.095H55.9358V219.858Z" fill="#5E94C1"/>
<path d="M55.9358 231.497H50.9316V236.734H55.9358V231.497Z" fill="#5E94C1"/>
<path d="M159.801 231.497H106.089V236.734H159.801V231.497Z" fill="#FCFDFD"/>
<path d="M316.599 236.618L295.47 227.19V223.35L316.599 213.922V217.996L299.807 225.212L316.599 232.428V236.618Z" fill="#FCFDFD"/>
<path d="M331.501 208.335L322.271 241.739H319.157L328.387 208.335H331.501Z" fill="#FCFDFD"/>
<path d="M355.076 227.19L333.947 236.618V232.544L350.739 225.328L333.947 218.112V214.039L355.076 223.466V227.19Z" fill="#FCFDFD"/>
<path d="M374.759 272H22.2409C10.0084 272 0 261.525 0 248.722H397C397 261.641 386.992 272 374.759 272Z" fill="#00BBD3"/>
<g opacity="0.1">
<g opacity="0.1">
<path opacity="0.1" d="M143.899 253.494L226.857 8.84552H195.386L112.428 253.494H143.899Z" fill="white"/>
</g>
<g opacity="0.1">
<path opacity="0.1" d="M39.2552 253.494H54.0454L137.004 8.84552H39.2552C34.5846 8.84552 30.8037 12.8027 30.8037 17.691V244.532C30.6925 249.421 34.5846 253.494 39.2552 253.494Z" fill="white"/>
</g>
<g opacity="0.1">
<path opacity="0.1" d="M319.824 253.494H362.86C367.531 253.494 371.312 249.537 371.312 244.649V101.724L319.824 253.494Z" fill="white"/>
</g>
</g>
<g opacity="0.1">
<g opacity="0.1">
<path opacity="0.1" d="M204.95 253.494H262.665L345.624 8.84552H287.908L204.95 253.494Z" fill="white"/>
</g>
</g>
<path d="M393.997 260.361C395.888 256.986 397 252.912 397 248.722H0C0 252.912 1.11204 256.986 3.00252 260.361H393.997Z" fill="#15D7E2"/>
</svg>
